<?xml version="1.0" standalone="no"?><svg xmlns="http://www.w3.org/2000/svg" viewBox="0 0 1440 320"><path fill="#95a9d4" fill-opacity="1" d="M0,160L24,165.3C48,171,96,181,144,202.7C192,224,240,256,288,277.3C336,299,384,309,432,261.3C480,213,528,107,576,106.7C624,107,672,213,720,213.3C768,213,816,107,864,96C912,85,960,171,1008,170.7C1056,171,1104,85,1152,80C1200,75,1248,149,1296,154.7C1344,160,1392,96,1416,64L1440,32L1440,320L1416,320C1392,320,1344,320,1296,320C1248,320,1200,320,1152,320C1104,320,1056,320,1008,320C960,320,912,320,864,320C816,320,768,320,720,320C672,320,624,320,576,320C528,320,480,320,432,320C384,320,336,320,288,320C240,320,192,320,144,320C96,320,48,320,24,320L0,320Z"></path></svg>